<svg height='300px' width='300px'  fill="#000000" xmlns="http://www.w3.org/2000/svg" xmlns:xlink="http://www.w3.org/1999/xlink" version="1.1" x="0px" y="0px" viewBox="0 0 66 66" style="enable-background:new 0 0 66 66;" xml:space="preserve"><path d="M64,25H29V6c0-0.55-0.45-1-1-1H2C1.45,5,1,5.45,1,6v54c0,0.55,0.45,1,1,1h26c0.55,0,1-0.45,1-1v-5h6.11  c-1.07,1.05-1.81,2.44-2.03,4H32c-0.55,0-1,0.45-1,1s0.45,1,1,1h22c0.55,0,1-0.45,1-1s-0.45-1-1-1h-1.08  c-0.22-1.56-0.96-2.95-2.03-4H64c0.55,0,1-0.45,1-1V26C65,25.45,64.55,25,64,25z M63,47H23V27h40V47z M27,59H3V7h24v18h-5  c-0.55,0-1,0.45-1,1v28c0,0.55,0.45,1,1,1h5V59z M50.9,59H35.1c0.46-2.28,2.48-4,4.9-4h6C48.41,55,50.44,56.72,50.9,59z M63,53H46  h-6H23v-4h40V53z"></path><path d="M7,15h16c0.55,0,1-0.45,1-1v-4c0-0.55-0.45-1-1-1H7c-0.55,0-1,0.45-1,1v4C6,14.55,6.45,15,7,15z M8,11h14v2H8V11z"></path><path d="M24,22v-4c0-0.55-0.45-1-1-1H7c-0.55,0-1,0.45-1,1v4c0,0.55,0.45,1,1,1h16C23.55,23,24,22.55,24,22z M22,21H8v-2h14V21z"></path><circle cx="43" cy="51" r="1"></circle><path d="M15,45c-1.65,0-3,1.35-3,3s1.35,3,3,3s3-1.35,3-3S16.65,45,15,45z M15,49c-0.55,0-1-0.45-1-1s0.45-1,1-1s1,0.45,1,1  S15.55,49,15,49z"></path></svg>