<svg height='300px' width='300px'  fill="#000000" xmlns="http://www.w3.org/2000/svg" viewBox="0 0 512 512" x="0px" y="0px"><title>Border_collie</title><g><path d="M208.6738,223.4446a14.4172,14.4172,0,0,0,14.4-14.4V198.9055a14.4,14.4,0,0,0-28.8,0v10.1391A14.4171,14.4171,0,0,0,208.6738,223.4446Z"></path><path d="M303.3255,184.5055a14.4168,14.4168,0,0,0-14.4,14.4v10.1391a14.4,14.4,0,0,0,28.8,0V198.9055A14.4169,14.4169,0,0,0,303.3255,184.5055Z"></path><path d="M247.3361,304.4164a11.1064,11.1064,0,0,0,17.3266,0l14.4953-18.5312a11.0015,11.0015,0,0,0-8.6672-17.775H241.508a11.001,11.001,0,0,0-8.6641,17.7781Z"></path><path d="M415.95,377.4539c-22.575-13.0156-34.3266-32.4031-39.1672-42.3312,20.139-6.9094,27.57-24.6969,27.9109-25.5406a6.3965,6.3965,0,0,0-1.8344-7.3188,62.4165,62.4165,0,0,1-21.7359-38.4125l-5.0484-32.5469c13.6265-37.0875,41.4093-72.3718,41.6921-72.7312a6.4,6.4,0,0,0-5.2421-10.3719,145.446,145.446,0,0,0-20.0407,1.9563c9.8688-31.1844,18.8016-75.0313,13.7938-123.425a15.42,15.42,0,0,0-21.5906-12.4688c-29.7063,13.2844-57.7063,32.3313-83.3094,56.6625-5.1563-4.3312-14.0828-10.6406-24.8735-13.3375a6.4587,6.4587,0,0,0-7.6453,8.1656,87.3431,87.3431,0,0,1,3.5256,25.15H239.6173a88.3669,88.3669,0,0,1,3.5219-25.15,6.4,6.4,0,0,0-7.6453-8.1656c-10.7906,2.6969-19.7172,9.0063-24.8734,13.3375-25.6016-24.3312-53.6-43.375-83.3078-56.6625a15.4381,15.4381,0,0,0-13.9688.7406c-8.47,4.8922-8.073,14.9424-8.58,23.5193a282.1587,282.1587,0,0,0-.0967,31.1271,314.2312,314.2312,0,0,0,7.7133,54.39q3.0411,13.1943,7.1334,26.1168a145.39,145.39,0,0,0-20.039-1.9563,6.4006,6.4006,0,0,0-5.2422,10.375c.2828.3563,28.0437,35.5844,41.6906,72.7281l-5.0484,32.5469a62.4166,62.4166,0,0,1-21.736,38.4125,6.3966,6.3966,0,0,0-1.8344,7.3188c.3407.8437,7.775,18.6312,27.911,25.5406-4.8438,9.9344-16.5938,29.3187-39.1656,42.3312a6.3991,6.3991,0,0,0-.725,10.6c1.014.7875,23.6828,18.1438,52.1078,22.1157.4968,12.6937,5.6765,40.2375,39.1234,57.7.0482.025.1022.0273.1508.0511a6.2926,6.2926,0,0,0,1.6541.56c.1.0184.1992.0168.3.03a3.6749,3.6749,0,0,0,1.4693.025c.1369-.0133.27-.0188.4059-.0406a6.3289,6.3289,0,0,0,1.6205-.4805c.0894-.0406.1695-.0953.2574-.14a6.3758,6.3758,0,0,0,1.3252-.9007c.0477-.0418.1078-.061.1543-.1047l14.5484-13.625c6.6985,12.75,21.8907,36.6343,45.3094,45.4218.0762.0286.1539.0383.2305.0641.11.0367.22.0609.332.0918a6.003,6.003,0,0,0,3.3719,0c.1119-.0309.2221-.0551.332-.0918.0766-.0258.1543-.0355.2305-.0641,23.4187-8.7875,38.6109-32.6718,45.3094-45.4218l14.5468,13.625c.0467.0437.1071.0633.1547.1051a6.3744,6.3744,0,0,0,1.3221.8988c.0889.0453.17.1008.2609.1418a6.34,6.34,0,0,0,1.618.48c.1363.0222.27.0277.4074.041a3.6784,3.6784,0,0,0,1.47-.025c.1-.0133.198-.0117.2976-.03a6.3115,6.3115,0,0,0,1.6563-.5609c.0486-.0235.1023-.0258.15-.0508,33.4547-17.4688,38.6313-45.0063,39.125-57.7,28.4266-3.9719,51.0938-21.3282,52.1079-22.1157a6.3991,6.3991,0,0,0-.725-10.6ZM249.4189,203.92V103.7039H262.58V203.92a80.9791,80.9791,0,0,0,31.8563,64.1593l17.883,13.57-9.8814,41.0046a18.0409,18.0409,0,0,1-22.3032,13.175l-22.4453-6.1437a6.3242,6.3242,0,0,0-3.3781,0l-22.4469,6.1437a18.0408,18.0408,0,0,1-22.3031-13.175L199.68,281.65l17.8829-13.5711A80.9748,80.9748,0,0,0,249.4189,203.92Zm-66.3,182.9156v63.9125c-24.816-18.0555-23.1225-42.6559-22.8094-45.6844a6.4612,6.4612,0,0,0-1.6953-4.9469,6.5644,6.5644,0,0,0-4.4312-2.1c-17.7844-1.2312-34.061-9.3875-43.2375-14.9187,29.0562-20.5844,38.7343-49.0094,39.1672-50.3156a6.3965,6.3965,0,0,0-5.0125-8.3188,35.0686,35.0686,0,0,1-23.8469-15.8719,75.2229,75.2229,0,0,0,22.2719-42.7781l5.2984-34.1656a6.4072,6.4072,0,0,0-.2969-3.1313c-9.564-26.8343-25.8844-52.3031-35.8234-66.45,9.8015,1.2657,13.7078,3.0813,13.7125,3.0813a6.4607,6.4607,0,0,0,9.014-7.8094c-10.7312-30.1219-22.3875-77.0062-16.9781-129.2906a2.62,2.62,0,0,1,3.636-2.0969C152.1,39.37,180.3392,58.9977,206.0236,84.2852a6.7431,6.7431,0,0,0,4.6156,1.8344,6.4139,6.4139,0,0,0,4.5422-2.0157,60.53,60.53,0,0,1,12.92-9.8093A94.1775,94.1775,0,0,0,226.84,90.9039h-7.2459a72.4687,72.4687,0,0,0-33.2812,8.1188,6.3987,6.3987,0,1,0,5.9,11.3562,59.6645,59.6645,0,0,1,27.3812-6.675h17.025V203.92a68.1133,68.1133,0,0,1-26.7937,53.9656L196.4068,268.068l-.9191-3.8141a6.4,6.4,0,0,0-12.4438,3l3.2309,13.4071.0006.0019,10.8419,44.991a30.5654,30.5654,0,0,0,8.5206,14.893l-1.0362.8508A58.59,58.59,0,0,0,183.1189,386.8352ZM316.08,447.4344l-10.1515-9.5086a6.4056,6.4056,0,0,0-10.2985,2.2469c-.1441.3523-14.41,34.4812-39.63,45.5891-25.22-11.1079-39.4856-45.2368-39.63-45.5891a6.4056,6.4056,0,0,0-10.2985-2.2469l-10.1531,9.5094v-60.6a45.8307,45.8307,0,0,1,16.8047-35.5438l4.4543-3.6578a30.5822,30.5822,0,0,0,18.0644.5391L256,342.4914l20.7562,5.6813a30.561,30.561,0,0,0,18.0092-.5844l4.51,3.7031A45.8309,45.8309,0,0,1,316.08,386.8352Zm41.975-49.43a6.3957,6.3957,0,0,0-4.7531,2.1157c-2.2784,2.5277-1.4178,5.8945-1.4772,8.9729a48.8442,48.8442,0,0,1-1.5822,11.28c-3.2089,12.3841-11.0815,22.8962-21.3625,30.3753V386.8352a58.5978,58.5978,0,0,0-21.4812-45.4375l-1.0371-.8516a30.5619,30.5619,0,0,0,8.52-14.8922l10.8391-44.9781.0078-.0328,3.2265-13.3891a6.4,6.4,0,0,0-12.4437-3l-.919,3.8133-13.4185-10.182A68.1179,68.1179,0,0,1,275.38,203.92V103.7039h17.025a59.6649,59.6649,0,0,1,27.3813,6.675,6.4671,6.4671,0,0,0,8.63-2.7281,6.3968,6.3968,0,0,0-2.73-8.6281,72.4691,72.4691,0,0,0-33.2813-8.1188H285.16a94.2,94.2,0,0,0-1.2613-16.6093,60.5106,60.5106,0,0,1,12.9094,9.8,6.403,6.403,0,0,0,4.5422,2.0312,6.3,6.3,0,0,0,4.625-1.8406c25.6859-25.2875,53.9265-44.9156,83.9375-58.3344a2.6176,2.6176,0,0,1,3.6343,2.0969c5.4094,52.2844-6.2468,99.1687-16.9765,129.2906-1.8961,5.3144,3.9056,10.2767,8.9078,7.8625.0531-.025,3.9719-1.8594,13.8172-3.1344-9.9391,14.15-26.2594,39.6157-35.8235,66.45a6.4072,6.4072,0,0,0-.2968,3.1313l5.2984,34.1656a75.2175,75.2175,0,0,0,22.2672,42.7719,35.1152,35.1152,0,0,1-23.8422,15.875,6.4007,6.4007,0,0,0-5.0125,8.3219c.4328,1.3062,10.1125,29.7343,39.1734,50.3187C391.8939,388.6352,375.6673,396.7914,358.0548,398.0039Z"></path></g></svg>