<svg height='300px' width='300px'  fill="#000000" xmlns="http://www.w3.org/2000/svg" xmlns:xlink="http://www.w3.org/1999/xlink" version="1.1" x="0px" y="0px" viewBox="0 0 64 64" style="enable-background:new 0 0 64 64;" xml:space="preserve"><g><path d="M60,21H39V11h2V5h-8.219l-1-4H10.219l-1,4H1v6h2v26H1v6h3.78l-4,20h6.04l2-10H18v10h6V53h9.18l2,10h6.04l-4-20H41v-6h-2V27   h21c1.654,0,3-1.346,3-3S61.654,21,60,21z M11.781,3h18.438l0.5,2H11.281L11.781,3z M3,7h36v2H3V7z M5.18,61H3.22l3.6-18H8.78   L5.18,61z M31.18,43l0.8,4H24v-4H31.18z M22,47h-2v-4h2V47z M18,47h-7.98l0.8-4H18V47z M22,61h-2v-8h2V61z M9.22,51l0.4-2h22.76   l0.4,2H9.22z M38.78,61h-1.96l-3.6-18h1.961L38.78,61z M39,41H3v-2h36V41z M37,37H5V11h32v10h-4.586l-0.481-0.481   C30.954,19.539,29.652,19,28.267,19c-1.028,0-2.022,0.302-2.876,0.871l-2.961,1.974l2,2L21.197,26l2.843,1.896   C25.125,28.618,26.386,29,27.689,29c1.757,0,3.41-0.685,4.652-1.927L32.414,27H37V37z M25.57,22.155l0.931-0.62   c1.229-0.823,2.969-0.651,4.018,0.397L31,22.414v3.172l-0.073,0.073c-1.505,1.506-4.005,1.754-5.777,0.572L24.803,26l2.767-1.845   L25.57,22.155z M60,25H33v-2h27c0.551,0,1,0.448,1,1S60.551,25,60,25z"></path><path d="M12,23v-2c-1.654,0-3-1.346-3-3s1.346-3,3-3s3,1.346,3,3h2c0-2.757-2.243-5-5-5s-5,2.243-5,5S9.243,23,12,23z"></path><path d="M20,27.15c0-2.295-0.999-4.467-2.741-5.959l-4.608-3.95l-1.302,1.518l4.608,3.951C17.255,23.821,18,25.44,18,27.15   c0,4.328,3.521,7.85,7.85,7.85H31v-2h-5.15C22.624,33,20,30.376,20,27.15z"></path><rect x="33" y="33" width="2" height="2"></rect><path d="M14,26.5c0,1.379-1.122,2.5-2.5,2.5C9.019,29,7,31.019,7,33.5V35h2v-1.5c0-1.379,1.122-2.5,2.5-2.5   c2.481,0,4.5-2.019,4.5-4.5V24h-2V26.5z"></path><path d="M26,15h9v-2h-9c-3.86,0-7,3.141-7,7h2C21,17.243,23.243,15,26,15z"></path></g></svg>