<svg height='300px' width='300px'  fill="#000000" xmlns="http://www.w3.org/2000/svg" viewBox="0 0 60 60" x="0px" y="0px"><title>Toys - 048 - Guitar</title><path d="M18.126,34.80273a5.00016,5.00016,0,1,0,7.07129,0A5.00822,5.00822,0,0,0,18.126,34.80273ZM23.7832,40.46a3.00037,3.00037,0,1,1,0-4.24316A3.00363,3.00363,0,0,1,23.7832,40.46Z"></path><path d="M11.76172,42.58105a.99964.99964,0,0,0-1.41406,0L8.93359,43.99512a3.00363,3.00363,0,0,0,0,4.24316l2.82813,2.82813a3.00008,3.00008,0,0,0,4.24316,0l1.41406-1.41406a.99964.99964,0,0,0,0-1.41406Zm2.8291,7.07129a1.02258,1.02258,0,0,1-1.41406,0l-2.8291-2.82812a1.00259,1.00259,0,0,1,0-1.415l.707-.707,4.24316,4.24316Z"></path><path d="M59.707,7.36426,59,6.65723c-.00781-.00781-.01837-.01007-.02637-.01752.001-.01721.007-.03363.00781-.05084a2.8878,2.8878,0,0,0-.83691-2.20215L55.61328,1.85547a2.91407,2.91407,0,0,0-2.20117-.83691c-.017.00079-.0332.00671-.05023.00775-.00775-.00824-.01007-.01923-.01813-.02728l-.708-.707a1.00058,1.00058,0,0,0-1.41406,1.416l.16211.16187a3.406,3.406,0,0,0-.36426.35571l-.95782,1.1496-.25409-.25409a.99989.99989,0,0,0-1.41406,1.41406l.38269.38269L47.49042,6.46112l-.51093-.51093a.99989.99989,0,0,0-1.41406,1.41406l.63953.63953-.06433.07727a2.08784,2.08784,0,0,0-.40973,1.94482L29.90344,25.8526c-4.19653-2.64008-9.23956-2.44214-12.25989.58a7.97592,7.97592,0,0,0-1.89551,3.0127,7.43041,7.43041,0,0,1-6.51563,4.98828A9.98616,9.98616,0,0,0,2.91406,37.292,10.30212,10.30212,0,0,0,0,44.66992,15.3199,15.3199,0,0,0,4.69336,55.30664,15.32257,15.32257,0,0,0,15.32227,60h.00781a10.30009,10.30009,0,0,0,7.375-2.91113,9.98844,9.98844,0,0,0,2.86133-6.32031,7.43218,7.43218,0,0,1,4.9873-6.5166,7.98311,7.98311,0,0,0,3.01367-1.89453c3.02112-3.02209,3.21906-8.06592.58014-12.2608L49.97461,14.26953a1.983,1.983,0,0,0,.57813.09473,2.13211,2.13211,0,0,0,1.36621-.50488l.07776-.06482.64.64a.99989.99989,0,0,0,1.41406-1.41406l-.51135-.51135,1.54266-1.28546.38275.38275a.99989.99989,0,0,0,1.41406-1.41406l-.25415-.25415,1.15063-.95874a3.40047,3.40047,0,0,0,.35522-.36353l.16235.16235A.99989.99989,0,0,0,59.707,7.36426ZM32.15332,29.2627l-2.71289,2.71289-1.416-1.416L46.979,11.606l1.41553,1.41553Zm0,11.68066a6.005,6.005,0,0,1-2.26758,1.42383,9.38837,9.38837,0,0,0-6.31152,8.22461,8.02031,8.02031,0,0,1-2.28223,5.082A8.21183,8.21183,0,0,1,15.3291,58h-.00684a13.317,13.317,0,0,1-9.21484-4.10742A13.31562,13.31562,0,0,1,2,44.6709a8.21384,8.21384,0,0,1,2.3291-5.96582,8.01815,8.01815,0,0,1,5.08008-2.2793,9.38644,9.38644,0,0,0,8.22461-6.3125,6.00754,6.00754,0,0,1,1.42383-2.2666,6.57519,6.57519,0,0,1,4.72852-1.84277,9.46225,9.46225,0,0,1,4.66309,1.30273l-2.5459,2.5459a.99964.99964,0,0,0,0,1.41406l2.83008,2.83008a.99964.99964,0,0,0,1.41406,0l2.5459-2.5459C34.5918,34.86914,34.418,38.67773,32.15332,40.94336Zm24.3418-33.5L50.582,12.38086l-.05658-.05658-.00787-.01178L47.6875,9.4834l-.00873-.0058L47.61914,9.418l4.93652-5.91113A1.32989,1.32989,0,0,1,53.502,3.0166l.04785-.001a.90859.90859,0,0,1,.64941.25391l2.53125,2.53125a.92315.92315,0,0,1,.25293.69824A1.32171,1.32171,0,0,1,56.49512,7.44336Z"></path></svg>