<svg height='300px' width='300px'  fill="#000000" xmlns="http://www.w3.org/2000/svg" xmlns:xlink="http://www.w3.org/1999/xlink" version="1.1" x="0px" y="0px" viewBox="0 0 144.083 144" enable-background="new 0 0 144.083 144" xml:space="preserve"><path d="M108.372,115.489c-3.41,0-4.959-1.364-7.104-3.252c-2.402-2.115-5.393-4.748-11.066-4.748  c-5.676,0-8.664,2.633-11.066,4.749c-2.145,1.887-3.693,3.251-7.102,3.251c-3.409,0-4.957-1.364-7.101-3.251  c-2.401-2.116-5.392-4.749-11.065-4.749s-8.663,2.633-11.064,4.749c-2.142,1.888-3.689,3.251-7.097,3.251  c-3.408,0-4.956-1.363-7.099-3.251c-2.402-2.116-5.392-4.749-11.066-4.749v6c3.409,0,4.957,1.364,7.101,3.251  c2.401,2.116,5.391,4.749,11.064,4.749c5.673,0,8.662-2.633,11.063-4.749c2.142-1.888,3.69-3.251,7.098-3.251  c3.409,0,4.957,1.364,7.101,3.251c2.401,2.116,5.392,4.749,11.065,4.749c5.674,0,8.665-2.633,11.067-4.749  c2.143-1.887,3.691-3.251,7.102-3.251s4.959,1.364,7.102,3.252c2.402,2.115,5.393,4.748,11.068,4.748  c5.674,0,8.664-2.633,11.066-4.748c2.145-1.888,3.693-3.252,7.104-3.252v-6c-5.676,0-8.666,2.633-11.068,4.748  C113.331,114.125,111.782,115.489,108.372,115.489z"></path><path d="M70.084,67.64c0.464,0.269,0.982,0.402,1.5,0.402s1.036-0.134,1.5-0.402l15.844-9.147h37.613v-6H88.928l-15.844-9.147  c-0.928-0.537-2.073-0.537-3,0c-0.928,0.535-1.5,1.525-1.5,2.598v6.55H58.065l-6.08-4.698c4.13-2.312,6.932-6.724,6.932-11.784  c0-7.443-6.056-13.499-13.5-13.499c-7.443,0-13.499,6.056-13.499,13.499c0,6.584,4.739,12.073,10.983,13.256l5.073,25.806  c0.207,1.054,0.962,1.916,1.979,2.262l16.269,5.525l5.504,16.109c-3.187-0.085-4.719-1.409-6.793-3.235  c-2.401-2.116-5.392-4.749-11.065-4.749s-8.663,2.633-11.064,4.749c-2.142,1.888-3.689,3.251-7.097,3.251  c-3.408,0-4.956-1.363-7.099-3.251c-2.402-2.116-5.392-4.749-11.066-4.749v6c3.409,0,4.957,1.364,7.101,3.251  c2.401,2.116,5.391,4.749,11.064,4.749c5.673,0,8.662-2.633,11.063-4.749c2.142-1.888,3.69-3.251,7.098-3.251  c3.409,0,4.957,1.364,7.101,3.251c2.401,2.116,5.392,4.749,11.065,4.749c5.674,0,8.665-2.633,11.067-4.749  c2.143-1.887,3.691-3.251,7.102-3.251s4.959,1.364,7.102,3.252c2.402,2.115,5.393,4.748,11.068,4.748  c5.674,0,8.664-2.633,11.066-4.748c2.145-1.888,3.693-3.252,7.104-3.252v-6c-5.676,0-8.666,2.633-11.068,4.748  c-2.143,1.888-3.691,3.252-7.102,3.252s-4.959-1.364-7.104-3.252c-2.402-2.115-5.393-4.748-11.066-4.748  c-5.676,0-8.664,2.633-11.066,4.749c-0.592,0.521-1.139,0.995-1.691,1.418l-6.021-17.628c-0.301-0.881-0.993-1.571-1.874-1.871  L53.526,72.21L49.9,53.766l5.307,4.101c0.525,0.405,1.17,0.626,1.834,0.626h11.543v6.55C68.584,66.114,69.156,67.104,70.084,67.64z   M74.584,51.139l7.541,4.354l-7.541,4.354V51.139z M45.417,43.51c-4.135,0-7.499-3.364-7.499-7.5c0-4.135,3.364-7.499,7.499-7.499  c4.136,0,7.5,3.364,7.5,7.499C52.917,40.146,49.553,43.51,45.417,43.51z"></path></svg>